<svg width="118" height="72" viewBox="0 0 118 72" fill="none" xmlns="http://www.w3.org/2000/svg">
<path fill-rule="evenodd" clip-rule="evenodd" d="M93.6482 16.7727L90.1427 26.1818H105.667L109.674 16.7727H93.6482ZM61.0967 58.5C62.0983 59.7273 62.5991 61.3636 62.5991 63C62.5991 67.9091 57.5912 72 51.5816 72C45.5721 72 40.5642 67.9091 40.5642 63C40.5642 61.3636 41.065 59.7273 41.5658 58.5H39.5626C31.0491 40.9091 22.5357 23.3182 14.523 5.31818H0V0H19.0301L24.5388 11.4545H114.682C117.185 11.4545 118.688 13.5 117.686 15.1364L104.666 42.1364C104.165 42.9545 103.163 43.7727 101.661 43.7727H39.5626L44.0698 53.1818H100.159V58.0909C101.16 59.7273 101.661 61.3636 101.661 63C101.661 67.9091 96.653 72 90.6435 72C84.634 72 79.626 67.9091 79.626 63C79.626 61.3636 80.1268 59.7273 80.6276 58.5H61.0967ZM27.0428 16.7727L31.0491 26.1818H49.5785L45.5721 16.7727H27.0428ZM33.5531 31.5L37.0587 38.4545H55.0872L52.0824 31.5H33.5531ZM53.084 16.7727L57.0904 26.1818H83.1316L86.6371 16.7727H53.084ZM102.662 31.5H88.1395L85.6355 38.4545H99.6577L102.662 31.5ZM78.6244 38.4545L81.1284 31.5H59.0935L62.0983 38.4545H78.6244ZM90.6435 59.3182C93.1474 59.3182 94.6498 60.9545 94.6498 63C94.6498 64.6364 93.1474 66.2727 90.6435 66.2727C88.1395 66.2727 86.6371 64.6364 86.6371 63C86.6371 60.9545 88.1395 59.3182 90.6435 59.3182ZM51.5816 59.3182C53.5848 59.3182 55.588 60.9545 55.588 63C55.588 64.6364 53.5848 66.2727 51.5816 66.2727C49.0777 66.2727 47.5753 64.6364 47.5753 63C47.5753 60.9545 49.0777 59.3182 51.5816 59.3182Z" fill="#CEE6B0"/>
</svg>
